<svg xmlns="http://www.w3.org/2000/svg" width="1355" height="775" viewBox="0 0 1355 775" version="1.1"><path d="M 862.800 261.228 C 859.918 263.460, 854 271.951, 854 273.854 C 854 279.648, 860.882 280.176, 865.649 274.747 C 867.228 272.948, 869.218 271.611, 870.070 271.775 C 872.696 272.281, 884.741 266.098, 885.301 263.956 C 885.991 261.318, 884.836 260.813, 881.097 262.116 C 879.255 262.758, 876.839 262.877, 875.232 262.403 C 873.730 261.961, 871.375 261.529, 870 261.443 C 868.625 261.358, 866.812 260.988, 865.971 260.622 C 865.131 260.256, 863.703 260.528, 862.800 261.228 M 783.200 274.200 C 781.090 276.310, 781.882 277.457, 787.098 279.851 C 791.501 281.870, 792.134 282.517, 791.738 284.590 C 791.034 288.275, 801.007 293.064, 804.881 290.900 C 809.213 288.481, 808.971 283.947, 804.305 280.097 C 797.606 274.572, 786.055 271.345, 783.200 274.200 M 868.370 281.584 C 865.142 284.105, 861.316 286.789, 859.869 287.548 C 858.155 288.447, 857.084 289.974, 856.798 291.926 C 856.017 297.247, 858.667 296.138, 865.714 288.196 C 877.199 275.253, 877.529 274.433, 868.370 281.584 M 878 286.669 C 876.075 288.620, 871.575 291.721, 868 293.559 C 864.425 295.397, 861.950 296.931, 862.500 296.966 C 863.050 297.002, 862.825 297.467, 862 298 C 858.228 300.437, 850 297.924, 850 294.335 C 850 293.158, 850.664 292.933, 852.750 293.405 C 854.755 293.859, 855.073 293.766, 853.925 293.062 C 849.881 290.583, 834.973 288.649, 828.104 289.712 C 819.866 290.987, 810.759 294.731, 813 295.920 C 824.647 302.104, 881.711 309.022, 888 305.013 C 891.939 302.502, 887.700 300.523, 877.134 299.939 C 871.365 299.620, 866.464 298.864, 865.789 298.189 C 865.054 297.454, 864.999 297, 865.645 297 C 868.018 297, 879.005 288.891, 880.470 286.058 C 882.431 282.266, 882.317 282.294, 878 286.669 M 459.336 284.706 C 460.665 285.049, 461.017 285.794, 460.613 287.404 C 459.926 290.145, 475.335 302, 479.585 302 C 481.650 302, 480.316 300.576, 472.158 294.078 C 466.689 289.720, 461.914 285.670, 461.548 285.078 C 461.182 284.485, 460.121 284.052, 459.191 284.116 C 457.753 284.215, 457.775 284.303, 459.336 284.706 M 934.571 287.571 C 932.287 289.856, 932.579 290.446, 936.740 291.951 C 938.798 292.695, 941.770 294.683, 943.345 296.369 C 946.102 299.321, 946.261 299.364, 947.604 297.526 C 951.982 291.540, 939.861 282.282, 934.571 287.571 M 920.692 318.788 C 918.966 320.696, 918.986 320.780, 921.325 321.367 C 924.640 322.199, 931.304 329.728, 930.717 331.976 C 930.051 334.520, 933.696 333.393, 935.617 330.461 C 939.950 323.849, 925.992 312.932, 920.692 318.788 M 954.714 404.910 C 947.967 413.112, 941.523 418.706, 930.009 426.357 C 920.461 432.702, 920.276 433.095, 928.560 429.431 C 936.816 425.780, 944.689 420.317, 945.440 417.720 C 945.793 416.499, 949.438 412.638, 953.541 409.139 C 958.963 404.515, 961 402.126, 961 400.389 C 961 397.184, 961.172 397.060, 954.714 404.910 M 874 446.136 C 872.625 446.691, 869.250 447.758, 866.500 448.507 L 861.500 449.868 868 449.903 C 873.780 449.933, 874.699 449.664, 876.297 447.469 C 878.239 444.800, 877.857 444.579, 874 446.136" stroke="none" fill="#d2c5ad" fill-rule="evenodd"/><path d="M 846.618 256.281 C 844.353 258.635, 839.800 263.542, 836.500 267.184 C 828.826 275.654, 822.416 277.255, 806.865 274.583 C 793.075 272.215, 791.735 272.450, 798.648 276.029 C 808.129 280.938, 810.757 285.046, 807.443 289.777 C 805.395 292.702, 800.725 292.673, 795.500 289.701 C 793.300 288.451, 788.575 286.371, 785 285.081 C 781.425 283.791, 777.375 282.258, 776 281.675 C 773.050 280.424, 757.459 278.364, 754.323 278.810 C 752.439 279.078, 752.220 279.582, 752.701 282.542 C 753.146 285.284, 752.883 286.102, 751.378 286.657 C 750.345 287.038, 749.202 287.833, 748.839 288.425 C 748.475 289.016, 743.709 295.252, 738.249 302.282 C 696.374 356.191, 700.366 397.752, 749.789 422.430 C 780.168 437.599, 836.559 452.053, 845.886 447.061 C 847.184 446.367, 852.764 445.979, 860.254 446.062 C 873.101 446.206, 877.153 445.423, 905.500 437.314 C 940.049 427.432, 976.096 388.035, 985.468 349.914 L 988.070 339.329 986.168 334.914 C 967.656 291.953, 936.431 255.830, 915.203 252.818 C 904.035 251.234, 898.701 252.747, 900.321 257.039 C 902.088 261.722, 900.420 263.128, 888.396 267.090 C 875.593 271.308, 866.040 275.960, 860.565 280.643 C 855.025 285.381, 846.417 287.290, 839.250 285.370 C 835.917 284.477, 836.481 283.794, 843.170 280.622 C 847.206 278.708, 849.787 276.736, 850.870 274.739 C 851.767 273.086, 854.254 269.665, 856.398 267.136 C 867.879 253.589, 858.850 243.567, 846.618 256.281 M 879.491 274.015 C 879.146 274.573, 877.301 275.683, 875.392 276.481 C 873.483 277.278, 869.932 279.561, 867.501 281.552 C 858.055 289.293, 851.607 291.872, 845.701 290.273 C 837.738 288.117, 824.036 289.076, 816.371 292.325 C 811.313 294.469, 808.757 294.911, 801.750 294.853 C 788.460 294.743, 776.663 299.073, 778.341 303.445 C 778.939 305.005, 779.825 305.111, 786.257 304.390 C 797.946 303.081, 803.501 303.701, 822 308.377 C 855.626 316.878, 890.683 317.755, 905.086 310.457 C 914.550 305.661, 920.832 293.191, 915.927 288.937 L 913.636 286.950 910.068 290.365 C 902.383 297.720, 880.725 302.064, 868.573 298.687 L 865.646 297.873 870.573 295.033 C 877.393 291.101, 881.950 286.081, 882.658 281.719 C 883.618 275.805, 881.527 270.720, 879.491 274.015 M 739.163 287.732 C 723.670 301.080, 706.914 329.950, 702.535 350.842 C 700.206 361.952, 702.167 360.046, 705.025 348.421 C 710.457 326.331, 722.702 305.105, 738.940 289.632 C 746.387 282.537, 746.521 281.392, 739.163 287.732 M 935.500 285.939 C 932.883 287.031, 928.701 292.779, 929.330 294.418 C 930.056 296.310, 946 304.237, 946 302.706 C 946 302.012, 946.900 300.674, 948 299.732 C 954.109 294.501, 943.372 282.654, 935.500 285.939 M 760.313 315.929 C 756.064 317.939, 753.637 319.802, 752.563 321.878 C 750.471 325.923, 750.589 326.401, 753.223 324.557 C 754.445 323.701, 756.807 322.991, 758.473 322.981 C 768.562 322.916, 775.390 317.952, 770.404 314.306 C 767.942 312.506, 767.345 312.602, 760.313 315.929 M 921.228 317.064 C 919.978 317.552, 918.692 318.638, 918.371 319.476 C 918.049 320.314, 917.159 321, 916.393 321 C 913.846 321, 914.941 322.593, 921.427 328.322 C 928.401 334.483, 932.282 335.556, 935.345 332.171 C 941.131 325.777, 929.843 313.697, 921.228 317.064 M 800.252 322.104 C 792.922 325.732, 786.344 340, 792 340 C 792.550 340, 793 339.550, 793 339 C 793 338.450, 794.295 338, 795.878 338 C 797.460 338, 799.372 337.256, 800.126 336.348 C 800.881 335.439, 803.827 332.975, 806.674 330.872 C 817.332 322.998, 812.306 316.138, 800.252 322.104 M 867.589 332.627 C 866.865 334.516, 867.855 343.147, 869.011 345.018 C 871.054 348.323, 873.269 345.082, 872.569 339.810 C 871.550 332.124, 869.125 328.626, 867.589 332.627 M 792 380.201 C 789.258 381.371, 770.437 381.591, 766.979 380.493 C 763.078 379.255, 765.119 383.310, 769.500 385.500 C 777.851 389.676, 796.500 386.965, 796.500 381.575 C 796.500 379.208, 795.233 378.821, 792 380.201 M 864 379.672 C 864 386.489, 891.820 393.620, 897.197 388.183 C 899.207 386.151, 895.534 384, 890.056 384 C 887.547 384, 882.345 383.042, 878.497 381.872 C 870.306 379.380, 864 378.423, 864 379.672 M 808 398.932 C 808 406.272, 832.062 410.668, 846.282 405.926 C 859.183 401.624, 858.025 396.449, 844.987 400.139 C 835.792 402.741, 824.300 402.329, 816.213 399.107 C 809.667 396.498, 808 396.463, 808 398.932" stroke="none" fill="#e5dccc" fill-rule="evenodd"/><path d="M 456.045 257.748 C 456.845 258.846, 459.351 262.175, 461.614 265.145 C 466.812 271.970, 470.304 278.765, 469.581 280.649 C 469.269 281.462, 469.459 281.835, 470.011 281.493 C 470.555 281.157, 471 280.388, 471 279.785 C 471 279.182, 472.107 277.238, 473.460 275.464 L 475.919 272.239 469.689 266.257 C 463.155 259.982, 453.109 253.717, 456.045 257.748 M 940.500 267 C 944.320 270.850, 947.671 274, 947.946 274 C 948.221 274, 945.320 270.850, 941.500 267 C 937.680 263.150, 934.329 260, 934.054 260 C 933.779 260, 936.680 263.150, 940.500 267 M 420.202 262.848 C 415.142 264.426, 414.972 264.590, 416.420 266.500 C 417.254 267.600, 417.951 269.297, 417.968 270.271 C 418.049 274.763, 427.318 274.923, 429.014 270.462 C 429.912 268.101, 427.621 260.828, 426.065 261.098 C 425.754 261.152, 423.116 261.939, 420.202 262.848 M 373.659 263.933 L 369.885 265.516 372.891 268.396 C 374.544 269.980, 376.033 272.221, 376.199 273.378 C 376.860 277.991, 383 275.936, 383 271.100 C 383 265.846, 378.088 262.076, 373.659 263.933 M 343.091 277.354 C 341.946 279.205, 340.327 282.656, 339.492 285.023 C 338.657 287.391, 337.420 289.994, 336.743 290.810 C 336.066 291.625, 338.210 290.808, 341.506 288.995 L 347.500 285.698 338.500 295.099 L 329.500 304.500 339 295.301 C 344.225 290.242, 349.749 285.637, 351.276 285.066 C 356.648 283.060, 355.433 277.416, 349.807 278.242 C 347.634 278.561, 347 278.254, 347 276.886 C 347 273.707, 345.212 273.921, 343.091 277.354 M 452 282.500 C 450.663 283.923, 448.532 285, 447.053 285 C 445.624 285, 441.090 286.290, 436.977 287.866 C 432.865 289.442, 426.840 291.058, 423.588 291.458 C 415.478 292.455, 412.103 293.843, 417.500 293.961 C 419.700 294.009, 423.366 294.480, 425.646 295.006 C 430.877 296.214, 438.999 293.643, 445.830 288.617 C 450.325 285.311, 455.883 280, 454.849 280 C 454.574 280, 453.292 281.125, 452 282.500 M 458 282.074 C 458 284.676, 447.909 295.381, 443.884 297.048 C 439.962 298.673, 440.845 299.332, 451 302.355 C 466.941 307.100, 477.972 308.125, 488.053 305.798 L 493.258 304.597 489.879 303.375 C 488.021 302.702, 484.378 302.118, 481.784 302.076 C 475.282 301.971, 459.689 291.087, 460.636 287.314 C 461.046 285.682, 460.784 285, 459.747 285 C 458.719 285, 458.421 284.249, 458.755 282.500 C 459.018 281.125, 458.956 280, 458.617 280 C 458.277 280, 458 280.933, 458 282.074 M 528 284.445 C 535.418 292.227, 545.891 301.203, 547.088 300.804 C 548.271 300.410, 533.918 285, 532.368 285 C 531.871 285, 529.672 283.813, 527.482 282.362 L 523.500 279.725 528 284.445 M 850 294.443 C 850 297.937, 858.293 300.395, 862 298 C 862.825 297.467, 863.050 297.017, 862.500 297 C 861.950 296.983, 862.175 296.533, 863 296 C 863.825 295.467, 864.050 295.031, 863.500 295.031 C 862.950 295.031, 861.904 295.408, 861.176 295.870 C 860.369 296.382, 858.434 295.986, 856.215 294.855 C 851.844 292.626, 850 292.504, 850 294.443 M 869.784 306.738 C 872.689 306.941, 877.189 306.939, 879.784 306.734 C 882.378 306.528, 880 306.363, 874.500 306.365 C 869 306.368, 866.878 306.536, 869.784 306.738 M 359.104 314.535 C 356.645 317.335, 355.992 318.900, 356.269 321.327 C 356.526 323.577, 356.038 324.994, 354.564 326.275 C 352.913 327.711, 353.200 327.664, 356 326.039 C 357.925 324.922, 360.232 324.006, 361.128 324.004 C 362.023 324.002, 363.352 323.281, 364.082 322.401 C 365.293 320.942, 365.071 320.943, 361.551 322.414 C 356.482 324.532, 356.369 324.134, 360.945 320.291 C 365.721 316.282, 370.696 314.736, 369.605 317.600 C 369.057 319.039, 369.163 319.221, 370.042 318.348 C 372.116 316.292, 369.034 311.554, 365.392 311.198 C 362.892 310.953, 361.687 311.593, 359.104 314.535 M 517.596 314.765 C 518.199 315.169, 518.979 316.673, 519.329 318.107 C 520.518 322.971, 533.149 332.366, 532.967 328.250 C 532.870 326.061, 526.910 319.273, 522.994 316.891 C 519.093 314.518, 514.570 312.737, 517.596 314.765 M 426.833 321.876 C 427.749 322.456, 426.742 323.079, 423.615 323.867 C 419.256 324.964, 416.224 327.936, 417.447 329.914 C 418.056 330.899, 427.179 330.625, 428.887 329.570 C 431.173 328.157, 429.351 320.982, 426.715 321.015 C 425.852 321.026, 425.886 321.276, 426.833 321.876 M 490.750 326.045 C 487.839 327.799, 488.661 331.237, 492.750 334.410 L 496.500 337.319 493.250 333.862 C 489.454 329.824, 489.254 329, 492.066 329 C 496.915 329, 501 333.993, 501 339.919 C 501 343.201, 503.213 343.318, 505.750 340.169 C 511.105 333.523, 498.319 321.483, 490.750 326.045 M 986.157 349.709 C 982.303 365.895, 977.946 374.907, 966.317 390.740 C 963.384 394.734, 961 399.056, 961 400.379 C 961 402.128, 958.979 404.502, 953.541 409.139 C 949.438 412.638, 945.793 416.499, 945.440 417.720 C 943.754 423.554, 919.744 434.522, 894.404 441.033 C 882.200 444.169, 878.003 445.670, 876.365 447.483 C 875.190 448.782, 872.940 450.075, 871.365 450.356 C 869.789 450.638, 876.150 450.677, 885.500 450.445 C 961.899 448.546, 1009.251 400.019, 989.728 343.630 L 988.470 339.993 986.157 349.709 M 567.590 353.500 C 562.844 392.087, 534.325 426.814, 498.182 438.019 C 485.168 442.053, 486.198 442.943, 500.480 440.004 C 533.762 433.156, 557.529 418.125, 567.606 397.550 L 571.500 389.599 571.386 374.050 C 571.312 363.853, 570.766 356.607, 569.800 353 L 568.328 347.500 567.590 353.500 M 304.721 371.500 C 308.325 397.804, 329.397 420.091, 360.552 430.549 C 369.266 433.474, 387.185 438.148, 387.703 437.630 C 388.281 437.052, 385.694 435.409, 382 434.008 C 356.177 424.215, 333.060 407.099, 321.283 389.052 C 318.213 384.349, 314.531 378.733, 313.101 376.573 C 311.670 374.414, 309.278 372.183, 307.784 371.617 C 306.289 371.050, 304.897 370.117, 304.689 369.543 C 304.480 368.970, 304.495 369.850, 304.721 371.500 M 431.776 395.733 C 434.128 395.945, 437.728 395.942, 439.776 395.727 C 441.824 395.512, 439.900 395.339, 435.500 395.343 C 431.100 395.346, 429.424 395.522, 431.776 395.733 M 828.776 407.733 C 831.128 407.945, 834.728 407.942, 836.776 407.727 C 838.824 407.512, 836.900 407.339, 832.500 407.343 C 828.100 407.346, 826.424 407.522, 828.776 407.733" stroke="none" fill="#cfc1a9" fill-rule="evenodd"/><path d="M 905 241.434 C 893.040 244.887, 881.441 250.485, 878.775 254.090 C 875.964 257.892, 875.658 257.817, 871.930 252.398 C 863.181 239.681, 849.306 240.760, 835.115 255.260 C 825.047 265.547, 826.683 265.106, 798.745 265.085 C 776.359 265.068, 773.925 265.512, 772.546 269.856 C 771.995 271.592, 770.953 271.753, 761.062 271.633 C 747.699 271.470, 741.463 275.716, 745.217 282.423 C 745.918 283.676, 744.855 285.193, 740.476 289.196 C 723.140 305.040, 708.475 331.048, 704.908 352.273 C 703.670 359.643, 702.871 361.219, 701.500 359 C 701.160 358.450, 699.415 358, 697.622 358 C 693.199 358, 685.794 355.704, 676.377 351.413 C 668.833 347.975, 653.948 343.296, 647.338 342.285 C 636.808 340.675, 641.954 349.603, 655.578 356.583 C 678.580 368.366, 691.599 372.079, 699.843 369.205 L 702.904 368.137 702.882 375.073 C 702.822 394.115, 713.833 411.410, 733.865 423.737 L 742.044 428.771 735.798 434.286 L 729.552 439.801 726.699 437.401 C 716.354 428.695, 706.657 442.614, 713.611 456.189 C 718.551 465.834, 735 462.525, 735 451.887 C 735 449.049, 736.142 447.483, 742.949 440.989 L 750.899 433.405 754.699 435.362 C 818.120 468.024, 925.263 471.027, 968.473 441.355 C 969.557 440.610, 970.998 440, 971.674 440 C 973.458 440, 978.999 448.453, 979.004 451.180 C 979.030 467.444, 997.152 464.391, 1006.029 446.627 C 1014.931 428.811, 998.264 419.365, 985.973 435.261 L 983.838 438.021 982.058 435.823 C 980.301 433.654, 980.348 433.564, 985.592 429.062 C 1004.454 412.869, 1011.479 395.753, 1011.492 365.961 L 1011.500 348.421 1029.940 338.465 C 1052.833 326.104, 1055.439 323.364, 1050.250 317.114 C 1046.202 312.238, 1043.835 313.012, 1025.365 325.255 L 1008.230 336.612 1002.146 324.556 C 988.940 298.386, 963.325 266.347, 942.500 249.950 C 931.556 241.334, 916.887 238.002, 905 241.434 M 442.500 249.025 C 433.164 250.907, 413 259.144, 413 261.077 C 413 261.640, 411.439 260.911, 409.531 259.456 C 398.897 251.345, 383.212 251.282, 371.296 259.301 C 366.562 262.487, 366.324 262.537, 361.969 261.260 C 349.969 257.744, 337.357 268.467, 335.280 283.949 C 334.537 289.489, 336.397 292.521, 338.059 288.478 C 347.183 266.277, 356.289 261.099, 367.965 271.469 C 375.217 277.910, 379.598 275.308, 372.987 268.487 L 369.975 265.379 375.737 262.939 C 388.176 257.674, 400.831 260.223, 409.586 269.758 C 415.502 276.201, 421.581 273.322, 416.435 266.514 C 414.774 264.315, 417.119 263.355, 438.500 257.479 C 452.604 253.602, 458.103 255.131, 469.534 266.108 L 475.919 272.239 473.607 275.370 C 466.436 285.081, 477.421 282.234, 489.033 271.372 C 497.858 263.117, 506.729 263.668, 515.500 273.013 C 518.606 276.323, 528.626 283.546, 531.730 284.713 C 556.616 294.067, 580.859 370.496, 567.555 397.656 C 538.081 457.822, 363.002 461.225, 318.268 402.500 C 293.385 369.834, 299.245 336.199, 336.656 296.968 L 347.500 285.596 341.500 288.916 C 314.648 303.771, 294 330.561, 294 350.545 L 294 354.237 290.750 351.770 C 277.732 341.885, 257.059 332.731, 254.003 335.498 C 248.306 340.653, 266.299 353.317, 288.975 360.111 C 292.987 361.313, 293 361.333, 293.015 366.408 C 293.057 380.849, 302.092 402.551, 312.982 414.365 L 316.952 418.672 310.238 423.586 C 306.545 426.289, 302.987 428.842, 302.332 429.261 C 301.562 429.752, 300.348 428.613, 298.906 426.047 C 290.409 410.929, 272.896 422.644, 281.069 437.978 C 288.568 452.047, 302.189 454.305, 304.672 441.891 C 305.078 439.862, 306.131 438.521, 307.823 437.877 C 309.221 437.346, 313.790 434.511, 317.977 431.577 L 325.588 426.243 333.383 431.052 C 382.434 461.314, 492.164 464.714, 542.572 437.534 L 550.645 433.182 556.377 435.830 C 560.787 437.868, 562.001 438.890, 561.641 440.263 C 559.323 449.130, 571.409 457.942, 579.881 453.561 C 592.812 446.874, 586.482 419.811, 572.597 422.416 C 569.272 423.040, 565.432 425.987, 563.493 429.404 C 562.621 430.938, 562.118 431.011, 559.773 429.942 L 557.060 428.706 564.830 420.498 C 578.022 406.562, 583.749 392.549, 583.949 373.719 C 583.980 370.788, 584.484 368.799, 585.250 368.581 C 585.938 368.385, 591.900 367.438, 598.500 366.476 C 633.278 361.406, 642 358.894, 642 353.949 C 642 346.665, 640.579 346.639, 605.285 353.285 L 582.070 357.656 580.983 352.078 C 574.630 319.493, 551.813 280, 539.340 280 C 536.644 280, 523.136 270.382, 520.778 266.784 C 513.585 255.805, 493.317 254.753, 483.638 264.856 L 480.838 267.779 476.670 263.258 C 465.856 251.526, 454.194 246.668, 442.500 249.025 M 850.371 251.932 C 849.200 252.435, 844.397 257.313, 839.696 262.772 C 829.539 274.570, 826.941 275.769, 814.210 274.536 C 801.407 273.296, 783.188 272.467, 780.882 273.020 C 776.864 273.983, 776.615 277.676, 780.525 278.310 C 787.225 279.398, 795.679 286, 790.371 286 C 789.214 286, 775.584 280.899, 774.535 280.073 C 769.947 276.461, 749.994 278.251, 752.049 282.091 C 752.836 283.562, 752.596 284.357, 750.950 285.736 C 749.792 286.706, 745.074 292.314, 740.466 298.197 C 675.414 381.252, 713.680 434.967, 848 449.145 C 969.438 461.962, 1027.413 394.604, 971.541 305.610 C 941.623 257.956, 920.759 244.922, 892.939 256.504 C 876.442 263.372, 875.962 263.381, 869.436 256.937 C 863.765 251.337, 856.316 249.381, 850.371 251.932 M 878.302 276.221 C 876.542 277.475, 871.446 282.672, 866.977 287.770 L 858.850 297.041 864.589 294.503 C 876.179 289.377, 882.431 283.081, 881.826 277.144 L 881.500 273.942 878.302 276.221 M 452.924 282.591 C 444.695 291.385, 432.759 296.661, 425.148 294.868 C 409.950 291.286, 380.183 295.822, 382.321 301.393 C 382.802 302.647, 384.866 302.789, 395.375 302.293 C 410.863 301.561, 419.099 302.795, 437.097 308.544 C 459.870 315.820, 470.290 316.588, 484.062 312.006 C 497.650 307.486, 501.812 302.180, 489.207 305.446 C 478.618 308.190, 467.612 307.300, 451 302.355 C 440.845 299.332, 439.962 298.673, 443.884 297.048 C 447.909 295.381, 458 284.676, 458 282.074 C 458 279.249, 455.847 279.468, 452.924 282.591 M 913.752 294.445 C 902.314 308.779, 867.633 310.845, 824.500 299.759 C 802.122 294.008, 786.997 294.339, 779.774 300.738 C 776.660 303.496, 778.967 304.033, 791.317 303.423 C 803.381 302.828, 803.671 302.866, 821.058 307.321 C 874.463 321.005, 912.591 315.984, 916.527 294.750 C 917.381 290.148, 917.196 290.128, 913.752 294.445 M 931.128 291.900 C 928.807 293.370, 930.238 294.916, 937.762 299.071 C 944.112 302.578, 945 302.836, 945 301.180 C 945 296.590, 934.653 289.667, 931.128 291.900 M 516.691 312.642 C 516.338 312.995, 518.176 314.400, 520.775 315.764 C 526.966 319.013, 528.455 320.394, 531.657 325.858 C 534.158 330.125, 534.395 330.283, 535.290 328.275 C 538.675 320.690, 522.358 306.975, 516.691 312.642 M 365.500 317.029 C 364.400 317.526, 361.700 319.529, 359.500 321.481 L 355.500 325.031 360.500 322.866 C 363.250 321.675, 366.512 320.041, 367.750 319.235 C 371.733 316.641, 370.039 314.981, 365.500 317.029 M 756.869 318.510 C 753.715 320.223, 752.050 323.433, 754.756 322.582 C 755.715 322.281, 758.941 321.573, 761.924 321.010 C 768.536 319.761, 769.043 319.347, 765.574 318.028 C 762.010 316.673, 760.049 316.782, 756.869 318.510 M 418.500 322.208 C 414.252 324.644, 412.239 333.727, 415 338 C 415.720 339.115, 415.973 338.528, 415.985 335.718 C 416.013 328.752, 418.267 325.213, 423.519 323.891 C 426.706 323.088, 427.747 322.455, 426.833 321.876 C 424.959 320.688, 420.866 320.851, 418.500 322.208 M 916.712 321.762 C 915.325 322.072, 915.999 322.975, 919.712 325.782 C 922.345 327.774, 925.088 330.213, 925.807 331.202 C 927.493 333.523, 930 333.520, 930 331.196 C 930 327.315, 920.870 320.832, 916.712 321.762 M 801.179 326.267 C 796.495 327.766, 792 332.245, 792 335.413 C 792 338.017, 792.013 338.013, 797.250 333.762 C 800.138 331.418, 803.850 328.502, 805.500 327.282 C 808.930 324.745, 807.201 324.340, 801.179 326.267 M 490 329.826 C 490 330.280, 491.168 331.742, 492.595 333.076 C 494.023 334.409, 496.385 337.525, 497.845 340 L 500.500 344.500 500.822 341.131 C 501.218 336.994, 499.420 332.408, 496.640 330.460 C 494.398 328.890, 490 328.470, 490 329.826 M 868.100 335.750 C 868.232 340.738, 869.279 344.260, 870.778 344.759 C 872.339 345.280, 872.414 339.486, 870.902 335.149 C 869.411 330.872, 867.978 331.179, 868.100 335.750 M 379.317 370.617 C 377.249 376.006, 384.728 380.886, 387.094 375.692 C 388.726 372.112, 386.791 369, 382.933 369 C 381.096 369, 379.697 369.626, 379.317 370.617 M 486.913 372.087 C 483.732 375.268, 485.162 380.070, 489.699 381.439 C 494.952 383.024, 497.856 375.605, 493.365 372.073 C 490.086 369.493, 489.506 369.494, 486.913 372.087 M 865.184 380.715 C 866.043 385.180, 876.759 389.013, 888.299 388.985 C 899.741 388.956, 900.113 385.664, 888.801 384.549 C 884.817 384.156, 878.224 382.747, 874.151 381.418 C 865.331 378.539, 864.756 378.493, 865.184 380.715 M 790 381.203 C 788.047 381.773, 781.947 382.001, 776.202 381.718 C 765.347 381.183, 763.654 382.010, 769.574 384.956 C 776.871 388.586, 794.922 386.361, 795.815 381.722 C 796.185 379.799, 795.127 379.705, 790 381.203 M 416 385.896 C 416 395.813, 450.003 398.974, 453.677 389.399 C 454.604 386.982, 453.458 386.765, 448.560 388.428 C 440.497 391.166, 429.247 390.549, 422.500 387 C 415.757 383.453, 416 383.494, 416 385.896 M 808 398.427 C 808 405.033, 831.992 409.567, 845.586 405.530 C 857.792 401.906, 856.749 397.838, 844.442 401.068 C 834.572 403.657, 825.105 403.152, 815.454 399.519 C 807.588 396.558, 808 396.619, 808 398.427" stroke="none" fill="#000000" fill-rule="evenodd"/><path d="M 862.271 257.250 C 861.641 259.587, 859.185 263.808, 856.813 266.629 C 854.441 269.450, 851.767 273.104, 850.870 274.750 C 849.791 276.731, 847.188 278.716, 843.170 280.622 C 836.481 283.794, 835.917 284.477, 839.250 285.370 C 846.418 287.291, 855.026 285.381, 860.565 280.641 C 865.964 276.023, 876.574 270.857, 888.483 267.050 C 901.411 262.917, 902.924 261.463, 899.993 255.987 C 898.907 253.958, 885.017 259.126, 885.172 261.500 C 885.404 265.065, 884.501 266.045, 878.309 268.942 C 874.630 270.664, 870.922 271.939, 870.070 271.775 C 869.218 271.611, 867.228 272.948, 865.649 274.747 C 862.022 278.878, 858.587 279.841, 855.960 277.464 C 851.235 273.188, 861.413 258.010, 867 261 C 871.451 263.382, 872.281 260.873, 868.369 256.866 C 863.685 252.069, 863.665 252.071, 862.271 257.250 M 414.025 257.074 C 410.685 258.589, 409.908 259.325, 410.963 259.977 C 411.894 260.552, 413.210 260.194, 414.822 258.925 C 416.168 257.866, 417.884 257, 418.635 257 C 419.386 257, 420 256.550, 420 256 C 420 254.601, 419.133 254.757, 414.025 257.074 M 435.500 258.654 C 425.850 261.743, 426.570 261.085, 428.719 264.853 C 431.888 270.411, 424.149 277.549, 419.737 273.137 C 419.059 272.459, 418.258 272.599, 417.293 273.564 C 415.104 275.753, 414.231 275.393, 408.929 270.119 C 406.230 267.435, 402.330 264.419, 400.261 263.417 C 392.808 259.809, 374.382 260.778, 379.695 264.499 C 383.216 266.965, 384.594 271.686, 382.477 274.026 C 379.469 277.349, 372.100 276.764, 368.437 272.911 C 363.088 267.285, 356.721 265.481, 351.684 268.163 C 346.532 270.908, 344.765 278.660, 349.499 277.755 C 355.685 276.573, 357.189 283.710, 351.128 285.491 C 348.819 286.170, 344.429 289.952, 337.199 297.491 C 312.643 323.097, 305.504 336.113, 304.294 357.491 C 303.678 368.356, 303.477 367.757, 309.199 372.044 C 310.684 373.156, 314.033 377.538, 316.641 381.783 C 330.193 403.834, 344.988 416.643, 370.631 428.526 C 377.159 431.551, 384.300 434.949, 386.500 436.076 C 390.537 438.145, 407.961 440.982, 428.500 442.914 C 440.940 444.084, 481.272 443.525, 486 442.117 C 543.666 424.944, 579.442 373.890, 562.933 332.330 C 557.129 317.720, 548.899 302.102, 546.633 301.399 C 545.460 301.035, 540 296.370, 534.500 291.033 C 529 285.695, 522.925 280.247, 521 278.928 C 519.075 277.608, 516.429 275.262, 515.120 273.715 C 507.512 264.724, 497.079 264.006, 489.524 271.952 C 483.210 278.591, 467.703 285.822, 469.430 281.321 C 470.319 279.006, 467.429 273.337, 460.795 264.380 L 454.589 256 449.044 256.047 C 445.971 256.073, 439.934 257.235, 435.500 258.654 M 779 274.893 C 779 277.762, 781.413 278.083, 782.687 275.384 C 783.708 273.221, 783.589 273, 781.406 273 C 779.712 273, 779 273.560, 779 274.893 M 452.500 282 C 451.505 283.100, 449.646 284, 448.371 284 C 447.096 284, 442.553 285.402, 438.276 287.115 C 429.774 290.522, 424.379 291.525, 407 292.930 C 376.194 295.422, 369.238 303.044, 397.859 302.948 C 416.524 302.885, 419.834 303.427, 440.071 309.860 C 461.683 316.729, 472.416 317.168, 486.905 311.772 C 497.276 307.911, 501.684 303.056, 494.728 303.158 C 485.339 303.295, 481.665 301.759, 471.441 293.420 C 466.100 289.064, 461.116 285, 460.365 284.390 C 459.614 283.779, 459 282.542, 459 281.640 C 459 279.304, 454.726 279.541, 452.500 282 M 329.214 292.839 C 323.735 299.422, 322.458 301.767, 326.250 298.279 C 327.488 297.141, 330.094 295.144, 332.042 293.841 C 334.935 291.906, 335.478 291.023, 335.005 289.023 C 334.461 286.715, 334.128 286.934, 329.214 292.839 M 910.365 290.167 C 905.425 295.368, 896.048 298.834, 886.201 299.100 C 883.029 299.185, 882.857 299.297, 885 299.882 C 886.375 300.258, 887.950 301.590, 888.500 302.842 C 890.958 308.438, 916 296.316, 916 289.530 C 916 286.900, 913.163 287.221, 910.365 290.167 M 854.184 289.852 L 850.869 291.619 853.481 292.810 C 856.892 294.363, 856.707 294.453, 857.213 291 C 857.455 289.350, 857.619 288.019, 857.577 288.042 C 857.535 288.065, 856.008 288.879, 854.184 289.852 M 359.506 313.561 C 356.595 316.472, 355.989 317.768, 356.184 320.669 C 356.346 323.072, 355.871 324.621, 354.712 325.469 C 351.717 327.659, 352.871 328.049, 356.250 325.989 C 358.038 324.899, 360.093 324.006, 360.817 324.004 C 361.893 324.001, 366.342 321.169, 370.263 317.992 C 371.667 316.855, 368.934 311.216, 366.687 310.614 C 363.373 309.725, 363.320 309.747, 359.506 313.561 M 517.750 311.716 C 514.527 312.204, 514.152 313.596, 517 314.500 C 518.232 314.891, 519 316.013, 519 317.422 C 519 320.498, 529.410 330.440, 531.708 329.559 C 532.606 329.214, 533.688 329.495, 534.113 330.182 C 535.230 331.990, 537.015 326.818, 536.297 323.857 C 534.972 318.397, 526.124 310.646, 521.790 311.150 C 521.080 311.232, 519.263 311.487, 517.750 311.716 M 762.500 314.859 L 758.500 316.666 763.299 317.216 C 771.247 318.126, 771.078 319.542, 762.780 321.551 C 759.876 322.255, 758.400 322.859, 759.500 322.896 C 768.242 323.183, 775.127 317.760, 770.404 314.306 C 768.105 312.625, 767.325 312.680, 762.500 314.859 M 418.315 321.603 C 413.306 324.094, 411.498 332.024, 414.464 338.500 C 415.545 340.862, 415.856 341.075, 415.923 339.500 C 416.121 334.838, 419.729 331, 423.914 331 C 430.185 331, 432.748 327.249, 429.250 323.191 C 426.810 320.359, 422.172 319.686, 418.315 321.603 M 800.252 322.104 C 795.199 324.606, 790.975 329.304, 791.063 332.327 L 791.127 334.500 791.985 332.374 C 793.125 329.551, 797.570 326.485, 802.500 325.119 C 811.326 322.674, 811.103 324.015, 801.425 331.579 C 795.116 336.510, 794.216 337.556, 796.040 337.835 C 797.402 338.043, 799.416 337.075, 801.365 335.276 C 803.089 333.684, 806.157 331.172, 808.182 329.692 C 817.549 322.849, 811.138 316.716, 800.252 322.104 M 489.604 327.155 C 487.864 329.639, 488.815 332.296, 492.069 334.037 C 493.182 334.632, 495.508 337.421, 497.238 340.233 C 498.969 343.045, 500.561 344.818, 500.776 344.173 C 500.991 343.528, 501.734 343, 502.428 343 C 506.496 343, 508.479 334.557, 505.433 330.208 C 501.998 325.303, 492.222 323.417, 489.604 327.155 M 378.991 369.511 C 375.635 373.555, 382.552 381.277, 386.555 377.954 C 388.305 376.502, 388.463 370.863, 386.800 369.200 C 385.119 367.519, 380.491 367.704, 378.991 369.511 M 487 371 C 484.738 373.262, 484.283 379.181, 486.250 380.755 C 492.964 386.127, 500.160 378.006, 494.077 371.923 C 490.620 368.466, 489.659 368.341, 487 371 M 415 385.535 C 415 394.345, 437.695 399.509, 450.244 393.554 C 457.334 390.190, 456.170 384.267, 449.050 387.478 C 442.584 390.393, 429.284 389.950, 422.836 386.605 C 417.098 383.628, 415 383.341, 415 385.535 M 846.143 446.870 C 842.315 449.353, 862.887 450.151, 869.435 447.773 C 873.231 446.394, 872.913 446.337, 860.435 446.167 C 853.321 446.069, 846.889 446.386, 846.143 446.870" stroke="none" fill="#e0d0b8" fill-rule="evenodd"/></svg>