<svg width="1355" height="775" viewBox="0 0 1355 775" fill="none" xmlns="http://www.w3.org/2000/svg">
<path d="M927.375 215.313C936.703 222.066 944.866 231.275 952.266 240.047C954.569 242.641 957.032 245.064 959.5 247.5C964.821 252.766 969.704 258.269 974.52 263.996C975.2 264.804 975.2 264.804 975.895 265.629C976.844 266.756 977.792 267.884 978.738 269.013C981.759 272.6 984.897 276.034 988.125 279.438C995.78 287.787 1001.91 297.422 1006 308C1006.31 308.752 1006.62 309.503 1006.95 310.277C1008 312.839 1009 315.416 1010 318C1010.43 319.062 1010.85 320.124 1011.29 321.219C1020.88 346.181 1015.16 368.62 1006.79 392.831C1005.99 395.154 1005.21 397.483 1004.42 399.812C1003.91 401.315 1003.39 402.818 1002.88 404.32C1002.65 405.005 1002.42 405.689 1002.18 406.394C1000.22 411.994 997.974 416.566 993.117 420.094C990.727 422.758 990.727 422.758 991.056 425.652C991.603 428.982 992.323 432.222 993.125 435.5C993.378 436.628 993.63 437.756 993.891 438.918C994.363 441.021 994.848 443.121 995.348 445.217C995.954 447.803 996.495 450.393 997 453C997.557 452.59 998.114 452.18 998.688 451.758C1007.01 445.884 1012.95 444.279 1023 446C1023 446.66 1023 447.32 1023 448C1023.66 448 1024.32 448 1025 448C1027.21 454.629 1026.4 460.608 1023.32 466.812C1018.63 474.592 1011.02 482.492 1002.88 486.562C997.973 487.309 994.424 486.886 990.188 484.25C987.049 481.022 985.993 478.453 986.016 473.926C986.132 472.137 986.132 472.137 986.25 470.312C986.68 457.911 983.99 441.947 978 431C977.314 431.329 976.628 431.657 975.922 431.996C950.47 443.562 922.804 450.429 895 453C893.842 453.111 892.685 453.222 891.492 453.336C854.478 456.244 812.641 455.519 776.512 446.453C773.885 445.772 773.885 445.772 771 447C770.975 452.481 770.957 457.962 770.945 463.443C770.94 465.307 770.933 467.171 770.925 469.036C770.912 471.716 770.907 474.397 770.902 477.078C770.897 477.911 770.892 478.743 770.887 479.601C770.887 480.771 770.887 480.771 770.887 481.966C770.884 482.65 770.882 483.334 770.88 484.038C770.931 486.036 770.931 486.036 771.585 488.026C772.311 491.481 770.565 493.981 769 497C765.015 499.657 761.759 500.152 757 500C748.908 498.076 742.363 492.048 736 487C735.094 486.294 734.188 485.587 733.254 484.859C729.313 481.608 728.145 479.143 727.5 474.062C727.661 469.336 729.687 467.234 733 464C737.048 461.976 741.612 462.435 746 463C748.998 464.355 748.998 464.355 751.879 466.027C753.328 466.857 753.328 466.857 754.807 467.703C755.893 468.345 755.893 468.345 757 469C756.995 468.228 756.99 467.456 756.984 466.661C756.963 463.17 756.95 459.679 756.938 456.188C756.929 454.973 756.921 453.758 756.912 452.506C756.909 451.342 756.906 450.179 756.902 448.98C756.897 447.907 756.892 446.833 756.887 445.727C757 443 757 443 758 440C757.093 439.835 756.185 439.67 755.25 439.5C751.241 438.433 748.535 436.231 745.25 433.75C741.084 430.793 741.084 430.793 736.203 429.922C734.39 430.31 732.589 430.757 730.805 431.262C727.67 432.087 724.863 432.269 721.625 432.312C720.669 432.329 719.712 432.346 718.727 432.363C714.555 431.807 711.933 429.933 709 427C707.272 421.691 707.823 417.596 710.25 412.625C711.575 410.17 712.607 408.335 714.734 406.523C716.252 405.055 716.252 405.055 715.844 402.867C715.565 401.921 715.287 400.975 715 400C714.614 398.607 714.229 397.214 713.844 395.82C713.174 393.468 712.498 391.118 711.816 388.77C705.478 366.454 709.556 342.63 717.047 321.082C718.197 317.901 718.197 317.901 718 314C715.273 311.904 715.273 311.904 712 310C705.209 305.246 700.092 298.567 698.481 290.352C697.824 284.246 697.755 280.3 701 275C708.336 267.664 717.065 267.011 727 267C737.337 267.694 749.648 270.324 759 275C759 274.196 759 273.391 759 272.563C761.281 264.438 767.894 259.654 774.938 255.625C785.317 249.962 795.212 247.18 807.184 248.297C810.357 248.572 812.883 248.687 816 248C818.702 245.721 820.736 243.268 822.922 240.496C825.803 237.035 828.61 235.055 833 234C837.937 233.678 841.727 234.7 846 237.125C849.748 239.13 852.625 239.629 856.836 238.941C860.457 237.366 862.182 234.487 864.367 231.301C866.57 228.197 868.923 226.219 872 224C872.66 224 873.32 224 874 224C874.371 223.12 874.371 223.12 874.75 222.223C877.961 216.513 884.133 212.984 890.25 211.125C891.826 210.718 893.409 210.342 895 210C895.83 209.818 896.66 209.636 897.516 209.449C907.883 207.575 918.34 209.919 927.375 215.313ZM782 375C782 375.66 782 376.32 782 377C782.66 377 783.32 377 784 377C784 376.34 784 375.68 784 375C783.34 375 782.68 375 782 375ZM722 412C721.323 415.403 721.323 415.403 721 419C722.956 421.411 722.956 421.411 726.625 421.125C727.739 421.084 728.853 421.043 730 421C729.05 419.495 728.09 417.996 727.125 416.5C726.325 415.247 726.325 415.247 725.508 413.969C725.01 413.319 724.513 412.669 724 412C723.34 412 722.68 412 722 412Z" fill="#E3DACA"/>
<path d="M513.664 218.063C524.85 224.281 529.139 234.867 534.324 246.068C537.278 252.221 540.462 257.024 545.148 261.982C547.719 264.783 549.664 267.783 551.562 271.063C551.936 271.701 552.31 272.34 552.695 272.998C562.947 290.925 568.906 310.866 573.315 330.948C574.478 336.181 576.008 341.02 578 346C580.713 343.317 583.419 340.628 586.125 337.938C586.886 337.185 587.646 336.433 588.43 335.658C594.315 329.799 599.762 324.167 604 317C605.71 314.83 607.427 312.754 609.25 310.688C609.702 310.138 610.155 309.588 610.621 309.021C613.379 305.912 614.655 305.032 618.859 304.645C619.896 304.762 620.932 304.879 622 305C622.992 311.448 619.565 315.024 616 320C613.439 323.492 610.824 326.939 608.188 330.375C607.483 331.296 606.779 332.217 606.054 333.166C601.156 339.55 596.151 345.819 591 352C589.981 353.328 589.981 353.328 588.941 354.684C587 357 587 357 584.188 358.562C581.772 360.734 581.772 360.734 581.906 363.25C582.107 365.261 582.337 367.268 582.586 369.273C584.93 390.372 581.545 411.203 568.48 428.445C566.382 431.03 564.247 433.545 562 436C562.562 436.255 563.124 436.51 563.703 436.773C566.294 438.157 568.451 439.799 570.75 441.625C571.549 442.257 572.348 442.888 573.172 443.539C573.775 444.021 574.378 444.503 575 445C575.557 444.278 576.114 443.556 576.688 442.812C577.832 441.42 577.832 441.42 579 440C580.114 438.639 580.114 438.639 581.25 437.25C584.785 434.358 587.463 433.578 592 434C596.411 435.342 598.565 437.328 601.062 441.188C602.986 449.009 599.42 455.981 595.75 462.812C595.38 463.549 595.01 464.286 594.629 465.045C592.149 469.729 589.861 472.518 585 475C581.375 475.125 581.375 475.125 578 474C574.995 471.074 574.021 469.468 573.961 465.25C573.98 463.734 573.98 463.734 574 462.188C573.799 458.027 573.468 456.492 570.559 453.434C567.451 451.135 564.277 449.049 561 447C559.404 445.83 557.818 444.645 556.25 443.438C555.616 442.962 554.982 442.486 554.328 441.996C553.671 441.503 553.671 441.503 553 441C552.513 441.242 552.025 441.485 551.523 441.734C539.112 447.601 525.886 449.966 512.438 452.062C511.632 452.19 510.826 452.317 509.995 452.448C455.872 460.956 388.229 466.188 341.145 432.305C336.884 429.113 332.671 425.871 329 422C328.692 422.525 328.384 423.049 328.066 423.59C321.378 434.031 311.884 443.744 302.043 451.258C299.757 453.208 299.342 454.082 298.938 457C298.202 460.76 297.094 462.583 294 465C290.478 466.761 286.752 465.776 283 465C276.123 462.112 273.245 455.355 270 449C268.301 443.904 268.328 439.091 270.313 434.125C272 431 272 431 275 429C279.609 428.245 283.143 428.563 287.313 430.688C291.208 434.04 293.778 437.401 296 442C298.381 439.819 300.754 437.629 303.125 435.438C303.79 434.828 304.455 434.219 305.141 433.592C308.343 430.625 311.35 427.665 314.117 424.285C316.75 421.104 319.46 419.107 323 417C322.371 416.296 321.742 415.592 321.094 414.867C309.065 400.99 300.68 385.995 299.46 367.361C298.684 355.577 294.013 347.006 288 337C287.284 335.783 286.569 334.566 285.855 333.348C284.713 331.402 283.556 329.465 282.375 327.543C279.743 322.675 278.737 318.52 279 313C283.11 313.191 284.655 313.651 287.598 316.625C288.438 317.736 289.259 318.862 290.063 320C290.492 320.583 290.922 321.166 291.365 321.766C294.644 326.292 297.535 330.979 300 336C300.995 332.588 301.953 329.193 302.789 325.738C305.968 312.709 310.683 299.939 317.063 288.125C318.512 285.324 319 284.219 319 281C318.43 279.289 317.858 277.579 317.281 275.871C313.437 263.895 312.542 251.52 317.625 239.75C320.652 234.261 325.353 230.295 330.938 227.563C338.442 226.184 345.039 226.74 352 230C353.173 230.929 354.34 231.867 355.5 232.813C360.764 236.328 366.665 234.532 372.539 233.637C382.46 232.131 393.259 231.289 402 237C404.656 239.459 406.857 242.09 409 245C409.837 246.114 409.837 246.114 410.691 247.25C411.123 247.828 411.555 248.405 412 249C412.632 248.371 413.263 247.742 413.914 247.094C423.504 237.918 434.493 229.333 448.359 229.617C457.497 230.942 463.415 239.453 468.91 246.172C471 249 471 249 471 251C471.66 251 472.32 251 473 251C474.714 252.959 476.384 254.959 478 257C480.884 254.557 481.789 252.251 482.938 248.688C484.079 245.351 485.022 242.969 487.063 240.063C489.068 236.893 489.645 234.631 490.438 231C491.665 225.625 492.959 222.745 497 219C502.27 215.853 508.004 215.805 513.664 218.063Z" fill="#DECDAB"/>
<path d="M927.375 215.313C936.703 222.066 944.866 231.275 952.266 240.047C954.569 242.641 957.032 245.064 959.5 247.5C964.821 252.766 969.704 258.269 974.52 263.996C975.2 264.804 975.2 264.804 975.895 265.629C976.844 266.756 977.792 267.884 978.738 269.013C981.759 272.6 984.897 276.034 988.125 279.438C995.78 287.787 1001.91 297.422 1006 308C1006.31 308.752 1006.62 309.503 1006.95 310.277C1008 312.839 1009 315.416 1010 318C1010.43 319.062 1010.85 320.124 1011.29 321.219C1020.88 346.181 1015.16 368.62 1006.79 392.831C1005.99 395.154 1005.21 397.483 1004.42 399.812C1003.91 401.315 1003.39 402.818 1002.88 404.32C1002.65 405.005 1002.42 405.689 1002.18 406.394C1000.22 411.994 997.974 416.566 993.117 420.094C990.727 422.758 990.727 422.758 991.056 425.652C991.603 428.982 992.323 432.222 993.125 435.5C993.378 436.628 993.63 437.756 993.891 438.918C994.363 441.021 994.848 443.121 995.348 445.217C995.954 447.803 996.495 450.393 997 453C997.557 452.59 998.114 452.18 998.688 451.758C1007.01 445.884 1012.95 444.279 1023 446C1023 446.66 1023 447.32 1023 448C1023.66 448 1024.32 448 1025 448C1027.21 454.629 1026.4 460.608 1023.32 466.812C1018.63 474.592 1011.02 482.492 1002.88 486.562C997.973 487.309 994.424 486.886 990.188 484.25C987.049 481.022 985.993 478.453 986.016 473.926C986.132 472.137 986.132 472.137 986.25 470.312C986.68 457.911 983.99 441.947 978 431C977.314 431.329 976.628 431.657 975.922 431.996C950.47 443.562 922.804 450.429 895 453C893.842 453.111 892.685 453.222 891.492 453.336C854.478 456.244 812.641 455.519 776.512 446.453C773.885 445.772 773.885 445.772 771 447C770.975 452.481 770.957 457.962 770.945 463.443C770.94 465.307 770.933 467.171 770.925 469.036C770.912 471.716 770.907 474.397 770.902 477.078C770.897 477.911 770.892 478.743 770.887 479.601C770.887 480.771 770.887 480.771 770.887 481.966C770.884 482.65 770.882 483.334 770.88 484.038C770.931 486.036 770.931 486.036 771.585 488.026C772.311 491.481 770.565 493.981 769 497C765.015 499.657 761.759 500.152 757 500C748.908 498.076 742.363 492.048 736 487C735.094 486.294 734.188 485.587 733.254 484.859C729.313 481.608 728.145 479.143 727.5 474.062C727.661 469.336 729.687 467.234 733 464C737.048 461.976 741.612 462.435 746 463C748.998 464.355 748.998 464.355 751.879 466.027C753.328 466.857 753.328 466.857 754.807 467.703C755.893 468.345 755.893 468.345 757 469C756.995 468.228 756.99 467.456 756.984 466.661C756.963 463.17 756.95 459.679 756.938 456.188C756.929 454.973 756.921 453.758 756.912 452.506C756.909 451.342 756.906 450.179 756.902 448.98C756.897 447.907 756.892 446.833 756.887 445.727C757 443 757 443 758 440C757.093 439.835 756.185 439.67 755.25 439.5C751.241 438.433 748.535 436.231 745.25 433.75C741.084 430.793 741.084 430.793 736.203 429.922C734.39 430.31 732.589 430.757 730.805 431.262C727.67 432.087 724.863 432.269 721.625 432.312C720.669 432.329 719.712 432.346 718.727 432.363C714.555 431.807 711.933 429.933 709 427C707.272 421.691 707.823 417.596 710.25 412.625C711.575 410.17 712.607 408.335 714.734 406.523C716.252 405.055 716.252 405.055 715.844 402.867C715.565 401.921 715.287 400.975 715 400C714.614 398.607 714.229 397.214 713.844 395.82C713.174 393.468 712.498 391.118 711.816 388.77C705.478 366.454 709.556 342.63 717.047 321.082C718.197 317.901 718.197 317.901 718 314C715.273 311.904 715.273 311.904 712 310C705.209 305.246 700.092 298.567 698.481 290.352C697.824 284.246 697.755 280.3 701 275C708.336 267.664 717.065 267.011 727 267C737.337 267.694 749.648 270.324 759 275C759 274.196 759 273.391 759 272.563C761.281 264.438 767.894 259.654 774.938 255.625C785.317 249.962 795.212 247.18 807.184 248.297C810.357 248.572 812.883 248.687 816 248C818.702 245.721 820.736 243.268 822.922 240.496C825.803 237.035 828.61 235.055 833 234C837.937 233.678 841.727 234.7 846 237.125C849.748 239.13 852.625 239.629 856.836 238.941C860.457 237.366 862.182 234.487 864.367 231.301C866.57 228.197 868.923 226.219 872 224C872.66 224 873.32 224 874 224C874.371 223.12 874.371 223.12 874.75 222.223C877.961 216.513 884.133 212.984 890.25 211.125C891.826 210.718 893.409 210.342 895 210C895.83 209.818 896.66 209.636 897.516 209.449C907.883 207.575 918.34 209.919 927.375 215.313ZM869.25 243.813C865.415 246.394 862.502 247.131 858 248C858 247.34 858 246.68 858 246C855.316 245.155 852.629 244.324 849.938 243.5C848.809 243.142 848.809 243.142 847.658 242.777C841.679 240.966 836.654 239.623 830.832 242.645C827.89 245.091 825.98 247.638 823.688 250.688C819.983 254.955 816.747 256.327 811.113 256.797C807.83 256.927 804.584 256.94 801.3 256.852C789.929 256.581 780.115 260.138 771 267C768.084 269.812 765.361 272.703 763 276C763 276.66 763 277.32 763 278C764.247 278.508 765.498 279.006 766.75 279.5C767.446 279.778 768.142 280.057 768.859 280.344C771.264 281.195 771.264 281.195 775 281C775 281.66 775 282.32 775 283C764.399 282.854 755.082 281.571 745 278.254C737.384 275.797 730.256 274.656 722.25 274.688C721.426 274.671 720.603 274.655 719.754 274.639C713.909 274.634 710.818 275.755 706.211 279.426C703.824 282.529 704.582 286.288 705 290C706.768 299.979 715.685 306.274 723.371 312.004C724.966 313.174 724.966 313.174 727 313C726.304 314.502 726.304 314.502 725.594 316.035C723.995 319.775 723.191 323.421 722.5 327.438C722.255 328.862 722.009 330.287 721.762 331.711C721.639 332.429 721.515 333.146 721.388 333.886C721.025 335.864 720.587 337.827 720.145 339.789C715.556 360.598 716.075 383.467 727.313 402.188C728.495 403.826 729.726 405.431 731 407C731.749 407.937 732.498 408.874 733.27 409.84C737.144 414.699 737.144 414.699 742.293 417.938C746.101 418.025 749.214 416.775 752.688 415.375C753.395 415.102 754.103 414.828 754.832 414.546C758.889 412.949 762.768 411.168 766.625 409.125C770.232 407.218 772.841 406.453 777 407C777.33 408.32 777.66 409.64 778 411C777.233 411.227 776.466 411.454 775.676 411.688C770.686 413.469 765.968 415.722 761.188 418C760.221 418.451 759.255 418.902 758.26 419.367C757.343 419.803 756.425 420.239 755.481 420.688C754.644 421.083 753.808 421.479 752.946 421.887C750.844 422.851 750.844 422.851 750 425C796.199 446.006 856.805 445.321 906 436C906.878 435.84 907.755 435.68 908.659 435.515C913.832 434.547 918.918 433.363 924 432C924.863 431.77 925.727 431.54 926.616 431.304C929.415 430.55 932.209 429.78 935 429C935.849 428.763 936.698 428.526 937.573 428.282C943.552 426.554 949.249 424.367 955 422C956.677 421.342 958.355 420.687 960.035 420.035C960.865 419.71 961.694 419.384 962.549 419.049C964.227 418.39 965.906 417.737 967.588 417.088C977.009 413.371 985.971 409.831 990.27 400.137C991.671 396.466 992.88 392.764 994 389C994.301 388.018 994.301 388.018 994.607 387.016C1001.55 363.515 999.984 338.445 988.258 316.879C982.062 305.996 974.285 296.734 965.649 287.726C962.635 284.571 959.664 281.377 956.688 278.188C955.789 277.226 955.789 277.226 954.871 276.246C951.39 272.517 947.966 268.752 944.637 264.887C942.621 262.563 940.562 260.283 938.5 258C935.713 254.91 932.936 251.812 930.188 248.688C929.62 248.043 929.053 247.398 928.469 246.734C927 245 927 245 925.188 242.438C919.339 235.921 911.13 230.619 902.375 229.563C890.064 230.133 878.821 236.494 869.25 243.813ZM722 412C721.323 415.403 721.323 415.403 721 419C722.956 421.411 722.956 421.411 726.625 421.125C727.739 421.084 728.853 421.043 730 421C729.05 419.495 728.09 417.996 727.125 416.5C726.325 415.247 726.325 415.247 725.508 413.969C725.01 413.319 724.513 412.669 724 412C723.34 412 722.68 412 722 412Z" fill="#020202"/>
<path d="M513.664 218.063C524.85 224.281 529.139 234.867 534.324 246.068C537.278 252.221 540.462 257.024 545.148 261.982C547.719 264.783 549.664 267.783 551.562 271.063C551.936 271.701 552.31 272.34 552.695 272.998C562.947 290.925 568.906 310.866 573.315 330.948C574.478 336.181 576.008 341.02 578 346C580.713 343.317 583.419 340.628 586.125 337.938C586.886 337.185 587.646 336.433 588.43 335.658C594.315 329.799 599.762 324.167 604 317C605.71 314.83 607.427 312.754 609.25 310.688C609.702 310.138 610.155 309.588 610.621 309.021C613.379 305.912 614.655 305.032 618.859 304.645C619.896 304.762 620.932 304.879 622 305C622.992 311.448 619.565 315.024 616 320C613.439 323.492 610.824 326.939 608.188 330.375C607.483 331.296 606.779 332.217 606.054 333.166C601.156 339.55 596.151 345.819 591 352C589.981 353.328 589.981 353.328 588.941 354.684C587 357 587 357 584.188 358.562C581.772 360.734 581.772 360.734 581.906 363.25C582.107 365.261 582.337 367.268 582.586 369.273C584.93 390.372 581.545 411.203 568.48 428.445C566.382 431.03 564.247 433.545 562 436C562.562 436.255 563.124 436.51 563.703 436.773C566.294 438.157 568.451 439.799 570.75 441.625C571.549 442.257 572.348 442.888 573.172 443.539C573.775 444.021 574.378 444.503 575 445C575.557 444.278 576.114 443.556 576.688 442.812C577.832 441.42 577.832 441.42 579 440C580.114 438.639 580.114 438.639 581.25 437.25C584.785 434.358 587.463 433.578 592 434C596.411 435.342 598.565 437.328 601.062 441.188C602.986 449.009 599.42 455.981 595.75 462.812C595.38 463.549 595.01 464.286 594.629 465.045C592.149 469.729 589.861 472.518 585 475C581.375 475.125 581.375 475.125 578 474C574.995 471.074 574.021 469.468 573.961 465.25C573.98 463.734 573.98 463.734 574 462.188C573.799 458.027 573.468 456.492 570.559 453.434C567.451 451.135 564.277 449.049 561 447C559.404 445.83 557.818 444.645 556.25 443.438C555.616 442.962 554.982 442.486 554.328 441.996C553.671 441.503 553.671 441.503 553 441C552.513 441.242 552.025 441.485 551.523 441.734C539.112 447.601 525.886 449.966 512.438 452.062C511.632 452.19 510.826 452.317 509.995 452.448C455.872 460.956 388.229 466.188 341.145 432.305C336.884 429.113 332.671 425.871 329 422C328.692 422.525 328.384 423.049 328.066 423.59C321.378 434.031 311.884 443.744 302.043 451.258C299.757 453.208 299.342 454.082 298.938 457C298.202 460.76 297.094 462.583 294 465C290.478 466.761 286.752 465.776 283 465C276.123 462.112 273.245 455.355 270 449C268.301 443.904 268.328 439.091 270.313 434.125C272 431 272 431 275 429C279.609 428.245 283.143 428.563 287.313 430.688C291.208 434.04 293.778 437.401 296 442C298.381 439.819 300.754 437.629 303.125 435.438C303.79 434.828 304.455 434.219 305.141 433.592C308.343 430.625 311.35 427.665 314.117 424.285C316.75 421.104 319.46 419.107 323 417C322.371 416.296 321.742 415.592 321.094 414.867C309.065 400.99 300.68 385.995 299.46 367.361C298.684 355.577 294.013 347.006 288 337C287.284 335.783 286.569 334.566 285.855 333.348C284.713 331.402 283.556 329.465 282.375 327.543C279.743 322.675 278.737 318.52 279 313C283.11 313.191 284.655 313.651 287.598 316.625C288.438 317.736 289.259 318.862 290.063 320C290.492 320.583 290.922 321.166 291.365 321.766C294.644 326.292 297.535 330.979 300 336C300.995 332.588 301.953 329.193 302.789 325.738C305.968 312.709 310.683 299.939 317.063 288.125C318.512 285.324 319 284.219 319 281C318.43 279.289 317.858 277.579 317.281 275.871C313.437 263.895 312.542 251.52 317.625 239.75C320.652 234.261 325.353 230.295 330.938 227.563C338.442 226.184 345.039 226.74 352 230C353.173 230.929 354.34 231.867 355.5 232.813C360.764 236.328 366.665 234.532 372.539 233.637C382.46 232.131 393.259 231.289 402 237C404.656 239.459 406.857 242.09 409 245C409.837 246.114 409.837 246.114 410.691 247.25C411.123 247.828 411.555 248.405 412 249C412.632 248.371 413.263 247.742 413.914 247.094C423.504 237.918 434.493 229.333 448.359 229.617C457.497 230.942 463.415 239.453 468.91 246.172C471 249 471 249 471 251C471.66 251 472.32 251 473 251C474.714 252.959 476.384 254.959 478 257C480.884 254.557 481.789 252.251 482.938 248.688C484.079 245.351 485.022 242.969 487.063 240.063C489.068 236.893 489.645 234.631 490.438 231C491.665 225.625 492.959 222.745 497 219C502.27 215.853 508.004 215.805 513.664 218.063ZM502.707 227.172C497.947 233.244 495.227 240.834 492.08 247.816C487.327 258.05 479.602 271.699 469 277C469.373 276.469 469.745 275.938 470.129 275.391C470.839 274.331 470.839 274.331 471.563 273.25C472.038 272.554 472.514 271.858 473.004 271.141C474.145 269.109 474.145 269.109 473.941 267.117C472.56 264.01 470.494 261.503 468.375 258.875C465.179 254.844 462.147 250.8 459.313 246.5C455.395 240.879 452.045 237.549 445.188 236.313C440.653 236.617 437.449 238.844 433.715 241.277C426.91 245.595 419.451 248.952 412 252C412.474 252.846 412.949 253.691 413.438 254.563C415.057 258.126 415.613 261.126 416 265C412.088 264.122 410.36 263.467 407.875 260.242C407.256 259.131 406.638 258.02 406 256.875C405.314 255.695 404.625 254.517 403.934 253.34C403.296 252.238 402.657 251.136 402 250C398.112 243.646 394.385 239.885 387 238C383.619 237.605 380.39 237.753 377 238C375.146 238.118 375.146 238.118 373.254 238.238C369.834 238.469 366.417 238.724 363 239C363.433 239.519 363.866 240.039 364.313 240.574C364.869 241.272 365.426 241.969 366 242.688C366.557 243.372 367.114 244.056 367.688 244.762C369.227 247.388 369.252 249.006 369 252C365.282 251.765 364.053 251.051 361.316 248.418C360.387 247.351 359.469 246.274 358.563 245.188C353.857 239.623 348.389 234.072 340.957 232.594C335.282 232.346 331.533 233.656 326.949 237.016C323.589 240.437 322.261 244.45 321 249C320.807 249.665 320.613 250.33 320.414 251.016C318.376 260.785 320.39 272.093 321 282C323.025 280.067 324.421 278.368 326 276C324.491 280.839 322.98 285.677 321.465 290.514C320.951 292.157 320.438 293.8 319.926 295.443C319.186 297.817 318.443 300.19 317.699 302.562C317.474 303.287 317.249 304.011 317.017 304.757C315.898 308.318 314.711 311.832 313.388 315.323C310.171 323.845 308.398 332.906 308 342C307.951 343.042 307.951 343.042 307.901 344.105C306.921 368.076 312.411 387.92 328.723 406.07C350.8 429.751 382.859 440.662 414.608 442.12C438.47 442.945 462.389 442.774 486 439C487.428 438.777 488.855 438.555 490.283 438.333C500.229 436.778 510.151 435.102 520.063 433.342C521.832 433.03 523.602 432.723 525.372 432.417C540.47 429.789 554.005 426.741 563.312 413.562C568.766 405.45 568.353 397.094 568.312 387.625C568.31 386.95 568.308 386.276 568.306 385.58C568.257 375.947 567.764 366.835 565.552 357.423C564.873 354.445 564.276 351.453 563.676 348.457C558.151 321.207 550.018 296.128 537.188 271.375C536.744 270.517 536.3 269.658 535.843 268.774C533.937 265.199 532.114 262.135 529.484 259.031C525.647 254.349 523.401 248.972 520.838 243.52C517.59 236.779 513.796 229.911 508 225C504.837 224.656 504.837 224.656 502.707 227.172Z" fill="#030302"/>
<path d="M960 284C975.246 290.817 988.337 314.298 993.969 329.023C994.309 330.006 994.649 330.988 995 332C995.32 332.9 995.639 333.8 995.969 334.727C1000.99 351.959 999.17 372.024 994 389C993.807 389.66 993.615 390.32 993.417 391C991.033 399.015 988.421 406.326 981.244 411.19C979.32 412.23 977.381 413.132 975.375 414C974.649 414.328 973.922 414.657 973.174 414.995C964.328 418.895 955.171 421.968 946 425C944.302 425.566 942.604 426.133 940.906 426.699C939.604 427.133 938.302 427.567 937 428C937.719 427.291 938.439 426.582 939.18 425.852C941.922 423.109 944.525 420.254 947.125 417.375C950.808 413.304 954.598 409.427 958.562 405.625C970.568 393.637 979.372 380.362 979.5 362.812C979.422 359.866 979.228 356.938 979 354C978.954 353.262 978.908 352.525 978.861 351.765C977.597 334.015 970.551 317.298 963.307 301.214C963.029 300.591 962.752 299.967 962.466 299.325C961.691 297.596 960.902 295.874 960.113 294.152C958.951 290.862 958.703 288.461 959 285C959.33 284.67 959.66 284.34 960 284Z" fill="#CFC4B2"/>
<path d="M352 230C353.173 230.929 354.34 231.867 355.5 232.812C360.763 236.328 366.665 234.532 372.539 233.637C382.46 232.131 393.259 231.289 402 237C404.656 239.459 406.857 242.09 409 245C409.837 246.114 409.837 246.114 410.691 247.25C411.339 248.116 411.339 248.116 412 249C412.99 248.505 412.99 248.505 414 248C413.773 248.722 413.546 249.444 413.312 250.187C412.705 253.056 412.705 253.056 414.437 255.375C416.435 258.731 416.226 261.162 416 265C413.75 265.312 413.75 265.312 411 265C406.849 260.528 403.966 255.08 400.975 249.795C397.383 243.79 393.713 241.238 387 239C379.34 238.497 371.626 239.331 364 240C364.433 240.447 364.866 240.895 365.312 241.355C369.918 246.355 369.918 246.355 370.375 249.937C370.189 250.958 370.189 250.958 370 252C367.891 252.914 367.891 252.914 365 253C362.562 251.114 360.709 248.741 358.75 246.375C352.908 239.738 347.729 234.071 338.437 233.375C333.425 233.726 329.531 235.397 326 239C324.202 242.217 323.017 245.466 322 249C321.805 249.669 321.611 250.338 321.41 251.027C319.255 261.391 321.423 273.488 322 284C321.34 284 320.68 284 320 284C314.488 270.167 311.602 256.165 316.5 241.562C319.446 235.122 324.741 230.629 331 227.5C338.507 226.249 345.043 226.743 352 230Z" fill="#060504"/>
<path d="M421.668 291.609C427.828 294.18 432.672 293.046 438.812 290.938C440.858 290.239 442.918 289.58 445 289C445.99 289.495 445.99 289.495 447 290C442.61 293.425 439.71 295.582 434 296C434 296.66 434 297.32 434 298C436.021 298.674 438.042 299.345 440.066 300.008C442.169 300.719 444.259 301.468 446.34 302.242C454.096 305.04 461.307 306.703 469.541 307.367C474.814 307.814 474.814 307.814 477 310C455.494 312.792 435.666 311.861 416.133 302.07C397.026 292.568 378.151 289.905 357 288C358.691 284.618 361.672 284.032 365.129 282.836C384.332 278.689 404.563 282.471 421.668 291.609Z" fill="#0C0A04"/>
<path d="M952 368C955.692 368.692 955.692 368.692 957 370C957.78 377.149 955.983 382.053 952 388C938.551 404.499 912.217 417.788 891 420C876.615 420.839 876.615 420.839 870 417C870 415.35 870 413.7 870 412C870.577 412.026 871.155 412.052 871.75 412.079C897.529 413.088 920.51 405.566 940 388C944.941 382.896 947.904 377.644 950.273 370.969C951 369 951 369 952 368Z" fill="#0C0A07"/>
<path d="M877 253.188C881.038 255.509 883.969 258.963 887 262.438C887.494 262.999 887.987 263.561 888.496 264.139C890.656 266.754 891.946 268.495 892.312 271.91C892.209 272.6 892.106 273.289 892 274C893.32 274.33 894.64 274.66 896 275C895.505 276.485 895.505 276.485 895 278C887.91 278.615 887.91 278.615 883.762 275.813C882.728 274.885 881.703 273.947 880.688 273C876.812 269.739 873.677 267.261 868.438 267.125C856.952 268.357 848.221 273.333 839 280C837.515 280.99 837.515 280.99 836 282C837.421 272.21 842.234 264.44 850.066 258.316C858.465 252.599 866.993 249.348 877 253.188Z" fill="#CFC4B2"/>
<path d="M929.484 216.84C937.689 223.885 945.297 231.785 952.266 240.047C954.569 242.641 957.032 245.064 959.5 247.5C964.821 252.766 969.704 258.269 974.52 263.996C974.973 264.535 975.427 265.074 975.895 265.629C976.844 266.756 977.792 267.884 978.738 269.013C981.759 272.6 984.897 276.034 988.125 279.437C995.233 287.191 1003.31 297.676 1006 308C1005.67 308.99 1005.34 309.98 1005 311C1004.26 309.924 1003.52 308.847 1002.76 307.738C994.307 295.525 985.146 284.445 975.172 273.445C968.31 265.72 962.015 257.508 955.648 249.375C952.134 244.889 948.569 240.443 945 236C944.014 234.732 944.014 234.732 943.008 233.437C937.785 227.097 931.056 222.136 924 218C922.948 217.375 922.948 217.375 921.875 216.738C912.861 212.278 900.925 212.395 891.352 214.988C886.974 216.769 882.95 218.997 878.875 221.375C877.926 221.911 876.978 222.447 876 223C875.34 222.67 874.68 222.34 874 222C889.323 207.372 911.459 203.788 929.484 216.84Z" fill="#DED5C6"/>
<path d="M860 277C859.489 282.685 857.924 286.95 855.312 292C854.954 292.703 854.595 293.407 854.226 294.131C851.075 300.151 847.719 306.521 841 309C835.07 309.717 831.817 308.103 827.25 304.562C822.296 300.861 818.741 298.57 812.309 298.652C806.166 299.577 800.782 303.455 795.688 306.812C792.681 308.764 790.67 309.573 787 309C789.238 303.188 794.876 301 800 298C800.811 297.484 801.622 296.969 802.457 296.438C809.35 292.414 816.148 291.57 824 293C827.349 294.612 830.268 296.395 833.281 298.566C835.952 300.246 835.952 300.246 839.152 299.996C842.658 298.77 843.347 297.741 845.062 294.5C845.555 293.602 846.047 292.703 846.555 291.777C847.27 290.403 847.27 290.403 848 289C848.891 287.352 849.786 285.705 850.688 284.062C851.063 283.352 851.438 282.642 851.824 281.91C854.291 277.902 855.078 277 860 277Z" fill="#0D0B0A"/>
<path d="M899.938 291.688C908.954 291.845 915.726 295.802 922.148 301.918C925.56 305.754 926.748 309.128 927.438 314.25C927 317 927 317 925.312 319C923 320 923 320 920.438 319.625C917.536 317.691 917.286 316.104 916.125 312.938C912.381 306.489 901.8 301.297 894.773 299.398C894.188 299.267 893.603 299.135 893 299C895.214 292.062 895.214 292.062 899.938 291.688Z" fill="#CFC5B3"/>
<path d="M396.09 277.727C406.002 277.015 415.817 281.624 424.68 285.676C430.806 288.119 437.222 287.924 443.375 285.563C444.571 285.047 445.768 284.531 447 284C448.661 283.639 450.326 283.295 452 283C452.66 282.67 453.32 282.34 454 282C452.187 286.381 449.699 288.266 445.379 290.133C444.449 290.46 443.52 290.788 442.562 291.125C441.636 291.458 440.709 291.79 439.754 292.133C433.57 294.08 427.83 295.181 421.668 292.609C420.519 291.996 419.371 291.382 418.188 290.75C404.901 284.104 390.697 282.4 376 282C376 281.67 376 281.34 376 281C376.71 280.939 377.421 280.879 378.152 280.816C379.531 280.691 379.531 280.691 380.938 280.563C381.854 280.481 382.771 280.4 383.715 280.316C385.962 280.24 385.962 280.24 387 279C390.027 278.42 393.038 278.126 396.09 277.727Z" fill="#C0AB84"/>
<path d="M925 266C931.497 269.696 937.158 276.883 939.688 283.91C940.091 286.611 939.853 289.037 939.562 291.75C939.461 292.735 939.359 293.72 939.254 294.734C939.17 295.482 939.086 296.23 939 297C937 294 937 294 935.312 290.687C932.142 285.104 927.22 280.777 921 279C918.699 278.494 916.4 278.005 914.086 277.562C912 277 912 277 909 275C908.438 272.625 908.438 272.625 909 270C913.635 265.487 918.833 264.606 925 266Z" fill="#CCC1AF"/>
<path d="M442 382C444.505 383.879 444.987 384.961 446 388C446.767 395.553 445.982 402.413 442 409C438.599 412.018 438.599 412.018 435.938 411.938C433.293 410.658 432.477 409.566 431 407C430.624 404.144 430.429 401.605 430.438 398.75C430.439 397.99 430.441 397.23 430.443 396.448C430.618 391 431.606 387.396 435.199 383.152C437.599 381.617 439.204 381.691 442 382Z" fill="#110E08"/>
<path d="M860 276C859.134 276.34 859.134 276.34 858.25 276.687C852.435 280.079 849.87 286.841 847 292.648C845.147 296.268 843.648 299.043 840 301C834.964 300.891 832.014 298.88 828 296C824.75 294.054 822.011 293.644 818.25 293.375C817.265 293.3 816.28 293.225 815.266 293.148C814.518 293.099 813.77 293.05 813 293C814.39 289.741 814.89 289.064 818.125 287.187C822.202 285.663 825.861 285.719 830 287C833.122 288.483 836.073 290.164 839 292C839.557 290.732 839.557 290.732 840.125 289.437C843.957 282.412 850.875 272.682 860 276Z" fill="#D0C6B4"/>
<path d="M869 303C871 305 871 305 871.167 307.199C871.127 308.091 871.088 308.983 871.047 309.902C871.004 310.875 870.962 311.848 870.918 312.85C870.835 314.378 870.835 314.378 870.75 315.937C870.71 316.953 870.67 317.968 870.629 319.014C870.257 326.615 870.257 326.615 868 330C864.625 330.437 864.625 330.437 861 330C858.635 328.133 857.34 326.679 856 324C855.011 310.227 855.011 310.227 859 305C862.54 302.112 864.657 301.474 869 303Z" fill="#CCC1AF"/>
<path d="M881 265C882.775 266.469 884.487 267.988 886.191 269.539C889.189 271.961 892.504 273.405 896 275C895.67 275.99 895.34 276.98 895 278C887.91 278.615 887.91 278.615 883.762 275.812C882.728 274.885 881.703 273.947 880.688 273C876.812 269.739 873.677 267.261 868.438 267.125C856.952 268.357 848.221 273.333 839 280C837.515 280.99 837.515 280.99 836 282C838.056 274.688 843.744 269.525 850 265.625C859.95 260.119 871.239 258.201 881 265Z" fill="#13110F"/>
<path d="M837 391C842.048 395.015 843.62 398.837 844.375 405.125C844 408 844 408 842.688 410.375C838.481 412.919 833.795 412.845 829 412C825.77 407.156 825.329 401.727 826 396C828.704 390.224 830.851 389.312 837 391Z" fill="#0B0906"/>
<path d="M507 224.938C509.77 226.409 511.191 228.48 513 231C512.419 231.55 511.837 232.101 511.238 232.668C508.924 235.079 507.093 237.569 505.188 240.312C502.248 244.429 499.207 247.967 495.535 251.43C493.996 253.004 492.859 254.578 491.688 256.438C490.852 257.706 490.852 257.706 490 259C489.34 259 488.68 259 488 259C488 259.99 488 260.98 488 262C486.35 262.66 484.7 263.32 483 264C483.461 263.233 483.923 262.466 484.398 261.676C489.281 253.368 493.533 244.896 497.498 236.111C502.578 225.076 502.578 225.076 507 224.938Z" fill="#B4A17D"/>
<path d="M511 217C522.701 221.636 527.644 231.617 532.938 242.375C533.696 243.87 533.696 243.87 534.471 245.395C535.179 246.82 535.179 246.82 535.902 248.273C536.33 249.134 536.758 249.994 537.199 250.88C537.463 251.58 537.728 252.279 538 253C537.505 253.99 537.505 253.99 537 255C532.924 250.72 529.911 246.292 527.063 241.125C520.755 229.509 520.755 229.509 511 221C507.864 220.403 505.132 220.364 502 221C496.843 224.598 494.048 230.606 491 236C489.416 231.183 490.791 227.425 493 223C498.165 217.162 503.49 215.92 511 217Z" fill="#D0BFA0"/>
<path d="M503 304C517.59 303.333 517.59 303.333 524 307C528.438 312.326 529.125 316.403 529.062 323.188C529.053 324.46 529.044 325.732 529.035 327.043C529.024 328.019 529.012 328.995 529 330C528.01 330 527.02 330 526 330C525.685 329.024 525.371 328.048 525.047 327.043C524.615 325.758 524.183 324.472 523.75 323.188C523.545 322.545 523.34 321.902 523.129 321.24C521.786 317.314 520.732 314.935 517 313C513.947 312.115 510.888 311.49 507.777 310.844C504.96 309.988 503.815 309.261 502 307C502.33 306.01 502.66 305.02 503 304Z" fill="#CAB895"/>
<path d="M929.457 216.816C934.558 221.197 939.319 225.945 944.035 230.734C944.606 231.314 945.177 231.894 945.766 232.491C947 234 947 234 947 236C943.487 234.699 941.892 232.652 939.605 229.781C934.239 223.827 927.45 218.962 920 216C919.121 215.646 918.242 215.291 917.336 214.926C905.831 211.733 893.332 213.194 883 219C881.621 219.785 880.245 220.575 878.875 221.375C877.926 221.911 876.978 222.447 876 223C875.34 222.67 874.68 222.34 874 222C889.315 207.379 911.428 203.793 929.457 216.816Z" fill="#D8CFC0"/>
<path d="M779 365C783.764 365.56 787.587 367.587 791 371C791.42 374.694 791.253 376.562 789.375 379.812C786.479 382.479 784.928 383.082 781 383C778.257 381.369 777.266 379.979 776.43 376.902C775.804 372.917 775.694 370.651 777.437 366.938C777.953 366.298 778.469 365.659 779 365ZM782 375C782 375.66 782 376.32 782 377C782.66 377 783.32 377 784 377C784 376.34 784 375.68 784 375C783.34 375 782.68 375 782 375Z" fill="#090806"/>
<path d="M819.75 310.25C820.492 310.497 821.235 310.745 822 311C821.335 314.705 820.354 318.172 819.152 321.738C818.795 322.805 818.437 323.872 818.068 324.971C817.695 326.073 817.322 327.176 816.937 328.312C816.56 329.435 816.183 330.557 815.795 331.713C814.866 334.476 813.934 337.238 813 340C811 339 811 339 809.875 336.562C807.825 328.218 808.609 321.423 813 314C816.018 309.911 816.018 309.911 819.75 310.25Z" fill="#CAC0AE"/>
<path d="M325 318C325.33 318 325.66 318 326 318C325.584 323.971 324.688 329.762 323.5 335.625C322.077 342.71 321.507 349.652 321.211 356.867C321 360 321 360 320 362C319.34 362 318.68 362 318 362C314.751 349.111 315.908 333.635 322.121 321.879C323.187 320.188 323.187 320.188 325 318Z" fill="#D0BE9A"/>
<path d="M742.938 296.75C754.667 296.918 763.44 302.51 772 310C767.706 310 764.678 307.997 760.887 306.094C757.066 304.646 753.88 304.527 749.918 305.523C747.569 306.107 745.708 305.918 743.312 305.625C742.525 305.535 741.737 305.445 740.926 305.352C739 305 739 305 738 304C737.875 301 737.875 301 738 298C739 297 739 297 742.938 296.75Z" fill="#D5CBB9"/>
<path d="M870 360C875.445 360.605 875.445 360.605 877.68 362.195C879.514 364.703 879.366 366.487 879.312 369.562C879.309 370.533 879.305 371.504 879.301 372.504C879 375 879 375 877 377C874.688 377.5 874.688 377.5 872 377C868.392 373.713 867.17 372.232 866.5 367.375C867.01 363.934 867.625 362.474 870 360Z" fill="#121110"/>
<path d="M435 240C435.66 240 436.32 240 437 240C436.67 240.99 436.34 241.98 436 243C435.381 243.289 434.762 243.577 434.125 243.875C431.84 244.847 431.84 244.847 430.75 247.125C429.029 249.953 427.344 251.637 424.938 253.875C421.202 257.481 419.929 259.943 419 265C418 266 418 266 415.438 266.062C414.633 266.042 413.829 266.021 413 266C413.99 265.67 414.98 265.34 416 265C415.715 263.582 415.422 262.166 415.125 260.75C414.963 259.961 414.8 259.172 414.633 258.359C414.008 256.032 413.152 254.11 412 252C412.75 251.709 413.5 251.417 414.273 251.117C425.404 246.871 425.404 246.871 435 240Z" fill="#B7A583"/>
<path d="M383 362.062C385.599 363.281 386.491 364.568 388 367C388.398 369.437 388.398 369.437 388.375 372C388.383 372.846 388.39 373.691 388.398 374.562C387.929 377.434 386.895 378.834 385 381C382.625 380.687 382.625 380.687 380 380C377.702 376.553 377.702 375.067 377.688 371C377.671 369.948 377.654 368.896 377.637 367.812C378 365 378 365 379.395 363.121C381 362 381 362 383 362.062Z" fill="#0C0B09"/>
<path d="M481 367C482.65 367 484.3 367 486 367C488.636 371.547 488.573 375.863 488 381C486.5 384.125 486.5 384.125 485 386C483.125 385.75 483.125 385.75 481 385C479.055 381.981 478.728 379.553 478.75 376C478.745 375.154 478.74 374.309 478.734 373.438C479.015 370.865 479.705 369.22 481 367Z" fill="#14120D"/>
<path d="M837.066 240.719C841.642 241.046 845.585 242.12 849.938 243.5C850.717 243.738 851.496 243.977 852.299 244.223C854.202 244.806 856.101 245.402 858 246C858 246.66 858 247.32 858 248C859.32 248.33 860.64 248.66 862 249C857.223 251.548 852.274 251.806 847 251C844.766 249.959 842.895 248.747 840.895 247.312C838.101 245.377 835.152 244.248 832 243C834 241 834 241 837.066 240.719Z" fill="#C2B8A6"/>
<path d="M919.188 272.562C926.813 273.438 931.859 276.961 936.723 282.828C938.805 286.369 938.502 288.987 938 293C937.505 292.319 937.01 291.639 936.5 290.938C929.692 282.938 922.986 279.303 913 276C915.201 273.508 915.721 273.038 919.188 272.562Z" fill="#17130D"/>
<path d="M360 295C360 295.66 360 296.32 360 297C358.848 298.152 357.691 299.301 356.512 300.426C353.693 303.361 351.378 306.706 349 310C347.68 309.67 346.36 309.34 345 309C344.495 303.694 345.693 301.133 349 297C352.512 293.245 355.171 293.979 360 295Z" fill="#CAB895"/>
<path d="M775 264C775.66 264.33 776.32 264.66 777 265C775.35 268.63 773.7 272.26 772 276C773.32 276.33 774.64 276.66 776 277C776 278.98 776 280.96 776 283C775.67 282.34 775.34 281.68 775 281C772.67 280.642 770.336 280.312 768 280C765.062 278.938 765.062 278.938 763 278C765.618 272.329 769.753 267.431 775 264Z" fill="#BCB2A1"/>
<path d="M460 249C465.311 253.813 473.435 261.572 474 269C473.34 269.99 472.68 270.98 472 272C471.01 272 470.02 272 469 272C463.812 266.617 460 256.382 460 249Z" fill="#C2B08E"/>
<path d="M579 361C579.66 361 580.32 361 581 361C584.368 376.067 584.074 391.135 580 406C579.67 406 579.34 406 579 406C579.005 404.987 579.01 403.974 579.016 402.93C579.034 399.134 579.046 395.337 579.055 391.541C579.06 389.905 579.067 388.269 579.075 386.633C579.119 378.328 579.042 370.251 578 362C578.33 361.67 578.66 361.34 579 361Z" fill="#D9C8A7"/>
<path d="M401 315C401.66 316.32 402.32 317.64 403 319C400.594 321.406 399.963 321.208 396.688 321.312C391.939 321.709 390.1 323.337 387 327C386.34 327 385.68 327 385 327C385.359 319.828 385.359 319.828 387.938 316.5C392.297 314.365 396.231 314.667 401 315Z" fill="#C1AF8C"/>
<path d="M895 298C902.655 297.133 907.727 299.69 914 304C917.545 307.109 919.577 310.205 920 315C918.763 313.793 918.763 313.793 917.5 312.563C912.965 308.629 907.766 305.916 902.512 303.073C897.177 300.177 897.177 300.177 895 298Z" fill="#18140C"/>
<path d="M471.625 323.438C474.878 324.208 476.068 325.281 478 328C478.25 331.25 478.25 331.25 478 334C472.342 334 467.951 331.574 463 329C468.188 324.174 468.188 324.174 471.625 323.438Z" fill="#CAB896"/>
<path d="M507 308C511.797 307.6 515.706 307.897 520 310.195C524.475 314.233 526.901 320.437 529 326C529 327.32 529 328.64 529 330C528.01 330 527.02 330 526 330C525.685 329.024 525.371 328.048 525.047 327.043C524.615 325.758 524.183 324.472 523.75 323.187C523.545 322.545 523.34 321.902 523.129 321.24C521.785 317.309 520.716 314.964 517 313C514.2 312.007 514.2 312.007 511.25 311.312C510.265 311.061 509.28 310.81 508.266 310.551C507.518 310.369 506.77 310.187 506 310C506.33 309.34 506.66 308.68 507 308Z" fill="#221E16"/>
<path d="M552.375 438.313C552.911 438.539 553.447 438.766 554 439C550.755 442.872 547.27 444.256 542.562 445.688C541.907 445.9 541.252 446.112 540.576 446.33C534.509 448.259 529.369 449.125 523 449C525.538 447.308 527.195 446.492 530.02 445.598C530.795 445.347 531.57 445.096 532.369 444.838C533.986 444.325 535.603 443.812 537.221 443.299C541.892 441.788 547.699 437.697 552.375 438.313Z" fill="#D2C1A0"/>
<path d="M363 239C365.97 239 368.94 239 372 239C373.613 243.744 374.439 247.131 373 252C371.688 253.938 371.688 253.938 370 255C367.812 254.688 367.812 254.688 366 254C366.99 253.34 367.98 252.68 369 252C368.631 245.853 367.099 243.31 363 239Z" fill="#B19F7E"/>
<path d="M506.125 216.937C507.035 216.947 507.945 216.956 508.883 216.965C509.931 216.982 509.931 216.982 511 217C508.542 218.285 506.369 219.19 503.688 220C498.391 222.198 495.961 227.36 493 232C492.013 233.343 491.017 234.68 490 236C490.572 229.363 491.383 224.361 496.562 219.687C500.096 217.241 501.863 216.883 506.125 216.937Z" fill="#D9C8A8"/>
<path d="M754 301C762.037 301 766.172 304.757 772 310C768.512 310 766.804 309.084 763.688 307.562C759.769 305.723 756.366 304.354 752 304C752.66 303.01 753.32 302.02 754 301Z" fill="#282217"/>
<path d="M438 386C438.66 386 439.32 386 440 386C440.369 398.67 440.369 398.67 438 404C437.67 404 437.34 404 437 404C435.434 397.932 434.815 391.551 438 386Z" fill="#CDBD9E"/>
<path d="M866 305C866.33 305 866.66 305 867 305C867 311.93 867 318.86 867 326C863.65 322.65 863.844 319.087 863.812 314.5C863.798 313.562 863.784 312.623 863.77 311.656C864.005 308.94 864.615 307.321 866 305Z" fill="#1C170E"/>
<path d="M781 367C784.161 368.37 784.993 368.989 787 372C786.625 374.188 786.625 374.188 786 376C784.02 375.34 782.04 374.68 780 374C779.957 372 779.959 370 780 368C780.33 367.67 780.66 367.34 781 367Z" fill="#D3CBBC"/>
<path d="M870 362C874.875 362.875 874.875 362.875 876 364C876.141 366.671 876.042 369.324 876 372C874.125 371.5 874.125 371.5 872 370C871.015 367.348 870.541 364.795 870 362Z" fill="#DDD4C5"/>
<path d="M394.75 318.813C395.735 318.84 396.72 318.867 397.734 318.895C398.482 318.929 399.23 318.964 400 319C400 319.33 400 319.66 400 320C399.313 320.17 398.626 320.34 397.918 320.516C397.017 320.758 396.116 321 395.188 321.25C394.294 321.482 393.401 321.714 392.48 321.953C389.607 323.166 388.735 324.478 387 327C386.34 327 385.68 327 385 327C384.75 324.688 384.75 324.688 385 322C388.11 318.89 390.453 318.659 394.75 318.813Z" fill="#211A0C"/>
<path d="M573 418C573.33 418.66 573.66 419.32 574 420C566.317 431.402 566.317 431.402 562 435C561.01 435 560.02 435 559 435C559 434.34 559 433.68 559 433C560.539 431.555 560.539 431.555 562.625 429.875C566.795 426.35 569.922 422.488 573 418Z" fill="#CDBE9E"/>
<path d="M779 365C782.821 365.531 785.062 366.497 788 369C785 370 785 370 782.812 369.062C782.214 368.712 781.616 368.361 781 368C780.67 369.65 780.34 371.3 780 373C779.34 372.67 778.68 372.34 778 372C777.34 372.66 776.68 373.32 776 374C776.498 370.265 776.875 368.188 779 365Z" fill="#23211B"/>
<path d="M820 314C821 316 821 316 820.563 317.788C820.306 318.489 820.05 319.191 819.785 319.914C819.511 320.675 819.237 321.435 818.955 322.219C818.661 323.013 818.366 323.807 818.063 324.625C817.772 325.427 817.481 326.229 817.182 327.055C816.461 329.039 815.732 331.02 815 333C814.67 333 814.34 333 814 333C813.333 325.799 815.334 321.165 819 315C819.33 314.67 819.66 314.34 820 314Z" fill="#403B31"/>
<path d="M355 298C355.33 298.66 355.66 299.32 356 300C352.535 304.95 352.535 304.95 349 310C348.34 309.67 347.68 309.34 347 309C348.318 303.333 350.487 301.336 355 298Z" fill="#2E2512"/>
<path d="M802 248C811.41 247.815 811.41 247.815 816 249C815.67 249.99 815.34 250.98 815 252C810.71 251.34 806.42 250.68 802 250C802 249.34 802 248.68 802 248Z" fill="#CDC6B5"/>
<path d="M464 328C470.351 327.634 470.351 327.634 473.438 329.375C475 331 475 331 475 333C469.06 331.515 469.06 331.515 463 330C463.33 329.34 463.66 328.68 464 328Z" fill="#2F240E"/>
<path d="M447 290C441.216 294.941 441.216 294.941 437.754 295.109C435.562 294.812 435.562 294.812 432 294C432 293.67 432 293.34 432 293C434.122 292.304 436.248 291.618 438.375 290.937C440.15 290.363 440.15 290.363 441.961 289.777C445 289 445 289 447 290Z" fill="#413419"/>
<path d="M870 360C875.595 360.595 875.595 360.595 878 363C878.125 366.125 878.125 366.125 878 369C877.711 368.381 877.423 367.762 877.125 367.125C876.063 364.867 876.063 364.867 874 363C871.931 362.357 871.931 362.357 870 362C869.67 362.66 869.34 363.32 869 364C869 361 869 361 870 360Z" fill="#32302D"/>
<path d="M507 308C513.625 307.75 513.625 307.75 517 310C516.67 310.66 516.34 311.32 516 312C512.7 311.34 509.4 310.68 506 310C506.33 309.34 506.66 308.68 507 308Z" fill="#322917"/>
<path d="M470 249C470.33 249.66 470.66 250.32 471 251C471.66 251 472.32 251 473 251C474.543 252.426 474.543 252.426 476.188 254.312C476.738 254.927 477.288 255.542 477.855 256.176C478.233 256.778 478.611 257.38 479 258C478.67 258.99 478.34 259.98 478 261C477.423 260.237 476.845 259.474 476.25 258.688C474.187 255.983 474.187 255.983 471.75 254.438C470.884 253.726 470.884 253.726 470 253C470 251.68 470 250.36 470 249Z" fill="#C5B695"/>
<path d="M875 268C876.273 268.934 877.543 269.873 878.812 270.812C879.52 271.335 880.228 271.857 880.957 272.395C882.785 273.831 884.399 275.318 886 277C881.322 276.725 879.254 274.668 876.137 271.473C875 270 875 270 875 268Z" fill="#C7BCAA"/>
<path d="M525 322C527 323.75 527 323.75 529 326C529 327.32 529 328.64 529 330C528.01 330 527.02 330 526 330C525.67 327.36 525.34 324.72 525 322Z" fill="#11100D"/>
<path d="M392 321C392.66 321.33 393.32 321.66 394 322C392.625 323.5 392.625 323.5 391 325C390.34 325 389.68 325 389 325C388.67 326.32 388.34 327.64 388 329C387.01 329 386.02 329 385 329C385 328.34 385 327.68 385 327C385.66 327 386.32 327 387 327C387.268 326.381 387.536 325.762 387.812 325.125C389 323 389 323 392 321Z" fill="#B9A784"/>
<path d="M895 298C901.055 297.805 901.055 297.805 903 298C903.66 298.66 904.32 299.32 905 300C903.375 301.188 903.375 301.188 901 302C897.75 300.625 897.75 300.625 895 299C895 298.67 895 298.34 895 298Z" fill="#251F14"/>
<path d="M427 294C430.3 294 433.6 294 437 294C437 294.66 437 295.32 437 296C436.01 296 435.02 296 434 296C434 296.66 434 297.32 434 298C433.01 297.67 432.02 297.34 431 297C431 296.34 431 295.68 431 295C429.68 294.67 428.36 294.34 427 294Z" fill="#1B1304"/>
<path d="M859 239C858.34 240.65 857.68 242.3 857 244C855.02 243.01 853.04 242.02 851 241C851 240.67 851 240.34 851 240C853.763 239.403 856.16 239 859 239Z" fill="#D3CBBC"/>
<path d="M852 241C853.98 241.66 855.96 242.32 858 243C857.67 243.99 857.34 244.98 857 246C854.36 245.34 851.72 244.68 849 244C849.99 243.67 850.98 243.34 852 243C852 242.34 852 241.68 852 241Z" fill="#32302C"/>
<path d="M438 386C438.66 386 439.32 386 440 386C440 389.96 440 393.92 440 398C439.67 398 439.34 398 439 398C438.772 396.014 438.544 394.029 438.316 392.043C438.028 389.806 438.028 389.806 437 387C437.33 386.67 437.66 386.34 438 386Z" fill="#B5A78B"/>
</svg>
